<svg width="59" height="69" viewBox="0 0 59 69" fill="none" xmlns="http://www.w3.org/2000/svg">
<g clip-path="url(#clip0_363_2)">
<path d="M54.3998 54.4C53.9998 54.1 53.7998 53.6 53.9998 53.1C54.6998 51.8 54.9998 50.3 54.9998 48.7V18.7C54.9998 15.4 53.4998 12.3 50.9998 10.3C50.5998 6.8 48.1998 3.9 44.5998 2.7C33.4998 -0.9 21.2998 -0.9 10.1998 2.7C6.6998 3.9 4.1998 6.8 3.7998 10.3C1.2998 12.3 -0.200195 15.4 -0.200195 18.7V48.7C-0.200195 51.4 0.899805 54 2.7998 55.8C2.9998 56 2.9998 56.2 2.9998 56.4C2.9998 60.2 5.3998 63.6 8.9998 64.9C14.8998 67 21.0998 68 27.2998 68C28.3998 68 29.5998 68 30.6998 67.9C30.8998 67.9 31.0998 67.9 31.2998 67.9C45.8998 67.9 57.7998 63.9 57.7998 58.9C58.0998 57.3 56.6998 55.8 54.3998 54.4ZM9.5998 7.7C9.4998 7.8 9.4998 8 9.4998 8.2C9.4998 10.9 17.5998 13 27.5998 13C37.5998 13 45.6998 10.8 45.6998 8.2C45.6998 8 45.6998 7.9 45.5998 7.7C46.4998 8.5 47.0998 9.7 47.1998 10.9C46.9998 12.5 45.6998 14 43.9998 14.6C33.3998 18.1 21.6998 18.1 11.0998 14.6C9.2998 14 8.0998 12.6 7.9998 10.9C7.9998 9.7 8.5998 8.5 9.5998 7.7ZM9.7998 18.4C15.4998 20.3 21.4998 21.2 27.4998 21.2C33.4998 21.2 39.4998 20.3 45.1998 18.4C46.6998 17.9 48.0998 17 49.0998 15.9C49.4998 15.4 50.2998 15.5 50.4998 16.1C50.8998 16.9 50.9998 17.8 50.9998 18.8V48.8C50.9998 51.4 49.2998 53.6 46.8998 54.5C34.3998 58.9 20.5998 58.9 7.9998 54.5C5.6998 53.6 3.9998 51.3 3.9998 48.8V18.8C3.9998 17.9 4.1998 17 4.4998 16.1C4.6998 15.5 5.4998 15.4 5.8998 15.9C6.9998 17 8.2998 17.9 9.7998 18.4Z" fill="#FF9C41"/>
<path d="M14.5 38.8C14.5 30.5 19.3 25.8 28 25.8C37.2 25.8 40.6 30.7001 40.6 36.2001C40.6 36.5001 40.6 37.1 40.6 37.6H32.5C32.5 37.3 32.5 37 32.5 36.8C32.5 34.3 30.9 33.3 29 33.3C26.6 33.3 25 34.9001 25 38.7001C25 42.6001 26.7 44 29 44C30.9 44 32.5 43 32.5 40.6V39.8H40.6V41C40.6 47 37 51.6 28 51.6C18.3 51.6 14.5 46.4 14.5 38.8Z" fill="#FF9C41"/>
</g>
<defs>
<clipPath id="clip0_363_2">
<rect width="58.1" height="68.1" fill="white"/>
</clipPath>
</defs>
</svg>
