<svg width="25" height="25" viewBox="0 0 25 25" fill="none" xmlns="http://www.w3.org/2000/svg">
<path d="M3.63477 6.40576H5.63477H21.6348" stroke="#E34849" stroke-width="2" stroke-linecap="round" stroke-linejoin="round"/>
<path d="M8.63477 6.40576V4.40576C8.63477 3.87533 8.84548 3.36662 9.22055 2.99155C9.59563 2.61648 10.1043 2.40576 10.6348 2.40576H14.6348C15.1652 2.40576 15.6739 2.61648 16.049 2.99155C16.4241 3.36662 16.6348 3.87533 16.6348 4.40576V6.40576M19.6348 6.40576V20.4058C19.6348 20.9362 19.4241 21.4449 19.049 21.82C18.6739 22.195 18.1652 22.4058 17.6348 22.4058H7.63477C7.10433 22.4058 6.59562 22.195 6.22055 21.82C5.84548 21.4449 5.63477 20.9362 5.63477 20.4058V6.40576H19.6348Z" stroke="#E34849" stroke-width="2" stroke-linecap="round" stroke-linejoin="round"/>
<path d="M10.6348 11.4058V17.4058" stroke="#E34849" stroke-width="2" stroke-linecap="round" stroke-linejoin="round"/>
<path d="M14.6348 11.4058V17.4058" stroke="#E34849" stroke-width="2" stroke-linecap="round" stroke-linejoin="round"/>
</svg>
