<svg width="25" height="25" viewBox="0 0 25 25" fill="none" xmlns="http://www.w3.org/2000/svg">
<path d="M11.5352 4.37354H4.53516C4.00472 4.37354 3.49602 4.58425 3.12094 4.95932C2.74587 5.33439 2.53516 5.8431 2.53516 6.37354V20.3735C2.53516 20.904 2.74587 21.4127 3.12094 21.7877C3.49602 22.1628 4.00472 22.3735 4.53516 22.3735H18.5352C19.0656 22.3735 19.5743 22.1628 19.9494 21.7877C20.3244 21.4127 20.5352 20.904 20.5352 20.3735V13.3735" stroke="black" stroke-width="2" stroke-linecap="round" stroke-linejoin="round"/>
<path d="M19.0352 2.87376C19.433 2.47594 19.9725 2.25244 20.5352 2.25244C21.0978 2.25244 21.6373 2.47594 22.0352 2.87376C22.433 3.27159 22.6565 3.81115 22.6565 4.37376C22.6565 4.93637 22.433 5.47594 22.0352 5.87376L12.5352 15.3738L8.53516 16.3738L9.53516 12.3738L19.0352 2.87376Z" stroke="black" stroke-width="2" stroke-linecap="round" stroke-linejoin="round"/>
</svg>
