<svg width="441" height="126" viewBox="0 0 441 126" fill="none" xmlns="http://www.w3.org/2000/svg">
<path d="M1 110.757C12.5466 110.757 4.0791 91.0676 12.5466 91.0676C21.0141 91.0676 17.1652 101.541 27.1723 101.541C37.1793 101.541 33.3304 125 38.7188 125C44.1072 125 43.3374 110.757 51.8049 110.757C60.2724 110.757 54.884 120.392 59.5026 120.811C64.1213 121.23 62.5817 96.0946 71.819 96.0946C81.0562 96.0946 75.6679 108.243 81.0563 108.243C86.4447 108.243 81.826 87.7162 97.9912 85.6216C114.156 83.527 104.919 79.3378 114.926 79.3378C124.933 79.3378 119.545 105.311 131.091 105.311C142.638 105.311 131.861 80.5946 144.947 80.5946C158.033 80.5946 146.487 41.2162 163.422 41.2162C180.357 41.2162 169.58 49.1757 181.896 48.3378C194.213 47.5 188.054 12.3108 208.069 12.3108C228.083 12.3108 227.313 26.973 241.169 27.3919C255.025 27.8108 261.183 1 268.881 1C276.578 1 275.808 25.7162 292.743 25.2973C309.678 24.8784 305.06 15.2432 318.146 15.2432C331.232 15.2432 334.311 47.0811 345.088 47.0811C355.865 47.0811 354.325 15.2432 362.023 15.2432C369.721 15.2432 369.721 29.9054 378.958 29.4865C388.195 29.0676 388.965 20.6892 398.972 20.6892C408.979 20.6892 404.36 43.3108 414.367 43.3108C424.374 43.3108 419.756 27.3919 427.453 27.3919C433.612 27.3919 437.717 41.3559 439 48.3378" stroke="#FF9C41" stroke-width="2" stroke-linecap="square"/>
</svg>
