<svg width="447" height="132" viewBox="0 0 447 132" fill="none" xmlns="http://www.w3.org/2000/svg">
<path d="M4 113.757C15.5466 113.757 7.0791 94.0676 15.5466 94.0676C24.0141 94.0676 20.1652 104.541 30.1723 104.541C40.1793 104.541 36.3304 128 41.7188 128C47.1072 128 46.3374 113.757 54.8049 113.757C63.2724 113.757 57.884 123.392 62.5026 123.811C67.1213 124.23 65.5817 99.0946 74.819 99.0946C84.0562 99.0946 78.6679 111.243 84.0563 111.243C89.4447 111.243 84.826 90.7162 100.991 88.6216C117.156 86.527 107.919 82.3378 117.926 82.3378C127.933 82.3378 122.545 108.311 134.091 108.311C145.638 108.311 134.861 83.5946 147.947 83.5946C161.033 83.5946 149.487 44.2162 166.422 44.2162C183.357 44.2162 172.58 52.1757 184.896 51.3378C197.213 50.5 191.054 15.3108 211.069 15.3108C231.083 15.3108 230.313 29.973 244.169 30.3919C258.025 30.8108 264.183 4 271.881 4C279.578 4 278.808 28.7162 295.743 28.2973C312.678 27.8784 308.06 18.2432 321.146 18.2432C334.232 18.2432 337.311 50.0811 348.088 50.0811C358.865 50.0811 357.325 18.2432 365.023 18.2432C372.721 18.2432 372.721 32.9054 381.958 32.4865C391.195 32.0676 391.965 23.6892 401.972 23.6892C411.979 23.6892 407.36 46.3108 417.367 46.3108C427.374 46.3108 422.756 30.3919 430.453 30.3919C436.612 30.3919 440.717 44.3559 442 51.3378" stroke="#FF9C41" stroke-width="7" stroke-linecap="square"/>
</svg>
